# xmcd
#
# Track frame offsets: 
#        150
#        16290
#        30177
#        45566
#        60368
#        77523
#        91482
#        106967
#        128016
#        141742
#        155374
#        171018
#
# Disc length: 2505 seconds
#
# Revision: 0
# Processed by: cddbd v1.5.1PL2 Copyright (c) Steve Scherf et al.
# Submitted via: ExactAudioCopy v0.95b2
#
DISCID=8a09c70c
DTITLE=Τόλης Βοσκόπουλος - Είσαι Δικιά Μου
DYEAR=1983
DGENRE=Folk
TTITLE0=Είσαι Δικιά Μου
TTITLE1=Έλα
TTITLE2=Αν Νάταν Η Ζήλεια
TTITLE3=Κλαίω Γιατί
TTITLE4=Πανάθεμά Σε
TTITLE5=Πουκαμισάκι
TTITLE6=Ντροπή Σου
TTITLE7=Με Προδώσαν Οι Φίλοι Μου
TTITLE8=Πέφτει Η Βροχή
TTITLE9=Παναγιά
TTITLE10=Για Ένα Τίποτα
TTITLE11=Κι Εγώ
EXTD=
EXTT0=
EXTT1=
EXTT2=
EXTT3=
EXTT4=
EXTT5=
EXTT6=
EXTT7=
EXTT8=
EXTT9=
EXTT10=
EXTT11=
PLAYORDER=
